<mxfile host="app.diagrams.net" modified="2023-03-08T15:50:14.832Z" agent="5.0 (Windows NT 10.0; Win64; x64) AppleWebKit/537.36 (KHTML, like Gecko) Chrome/110.0.0.0 Safari/537.36" etag="hPuPI8hRG6APlTvsk6-2" version="20.8.23" type="github">
  <diagram name="Page-1" id="Mlz-E-LMVPvT7MCsBb7x">
    <mxGraphModel dx="1843" dy="830" grid="1" gridSize="10" guides="1" tooltips="1" connect="1" arrows="1" fold="1" page="1" pageScale="1" pageWidth="827" pageHeight="1169" math="0" shadow="0">
      <root>
        <mxCell id="0" />
        <mxCell id="1" parent="0" />
        <mxCell id="ha2R5BEODti1fyRFAgqo-26" value="" style="rounded=0;whiteSpace=wrap;html=1;fontFamily=Verdana;" vertex="1" parent="1">
          <mxGeometry x="140" y="170" width="530" height="580" as="geometry" />
        </mxCell>
        <mxCell id="ha2R5BEODti1fyRFAgqo-4" value="&lt;b&gt;Base Directory&lt;/b&gt;" style="text;html=1;align=center;verticalAlign=middle;resizable=0;points=[];autosize=1;strokeColor=none;fillColor=none;" vertex="1" parent="1">
          <mxGeometry x="165" y="175" width="110" height="30" as="geometry" />
        </mxCell>
        <mxCell id="ha2R5BEODti1fyRFAgqo-5" value="" style="endArrow=none;html=1;rounded=0;entryX=1.049;entryY=0.92;entryDx=0;entryDy=0;entryPerimeter=0;" edge="1" parent="1" target="ha2R5BEODti1fyRFAgqo-4">
          <mxGeometry width="50" height="50" relative="1" as="geometry">
            <mxPoint x="280" y="600" as="sourcePoint" />
            <mxPoint x="270" y="260" as="targetPoint" />
          </mxGeometry>
        </mxCell>
        <mxCell id="ha2R5BEODti1fyRFAgqo-6" value="" style="endArrow=none;html=1;rounded=0;" edge="1" parent="1">
          <mxGeometry width="50" height="50" relative="1" as="geometry">
            <mxPoint x="280" y="280" as="sourcePoint" />
            <mxPoint x="420" y="280" as="targetPoint" />
          </mxGeometry>
        </mxCell>
        <mxCell id="ha2R5BEODti1fyRFAgqo-7" value="" style="endArrow=none;html=1;rounded=0;" edge="1" parent="1">
          <mxGeometry width="50" height="50" relative="1" as="geometry">
            <mxPoint x="400" y="440" as="sourcePoint" />
            <mxPoint x="400" y="280" as="targetPoint" />
          </mxGeometry>
        </mxCell>
        <mxCell id="ha2R5BEODti1fyRFAgqo-8" value="" style="endArrow=none;html=1;rounded=0;" edge="1" parent="1">
          <mxGeometry width="50" height="50" relative="1" as="geometry">
            <mxPoint x="400" y="330" as="sourcePoint" />
            <mxPoint x="460" y="330" as="targetPoint" />
          </mxGeometry>
        </mxCell>
        <mxCell id="ha2R5BEODti1fyRFAgqo-9" value="" style="endArrow=none;html=1;rounded=0;" edge="1" parent="1">
          <mxGeometry width="50" height="50" relative="1" as="geometry">
            <mxPoint x="400" y="380" as="sourcePoint" />
            <mxPoint x="460" y="380" as="targetPoint" />
          </mxGeometry>
        </mxCell>
        <mxCell id="ha2R5BEODti1fyRFAgqo-10" value="" style="endArrow=none;html=1;rounded=0;" edge="1" parent="1">
          <mxGeometry width="50" height="50" relative="1" as="geometry">
            <mxPoint x="400" y="430" as="sourcePoint" />
            <mxPoint x="460" y="430" as="targetPoint" />
          </mxGeometry>
        </mxCell>
        <mxCell id="ha2R5BEODti1fyRFAgqo-11" value="" style="endArrow=none;html=1;rounded=0;" edge="1" parent="1">
          <mxGeometry width="50" height="50" relative="1" as="geometry">
            <mxPoint x="400" y="720" as="sourcePoint" />
            <mxPoint x="400" y="570" as="targetPoint" />
          </mxGeometry>
        </mxCell>
        <mxCell id="ha2R5BEODti1fyRFAgqo-12" value="" style="endArrow=none;html=1;rounded=0;" edge="1" parent="1">
          <mxGeometry width="50" height="50" relative="1" as="geometry">
            <mxPoint x="400" y="620" as="sourcePoint" />
            <mxPoint x="460" y="620" as="targetPoint" />
          </mxGeometry>
        </mxCell>
        <mxCell id="ha2R5BEODti1fyRFAgqo-13" value="" style="endArrow=none;html=1;rounded=0;" edge="1" parent="1">
          <mxGeometry width="50" height="50" relative="1" as="geometry">
            <mxPoint x="400" y="660" as="sourcePoint" />
            <mxPoint x="460" y="660" as="targetPoint" />
          </mxGeometry>
        </mxCell>
        <mxCell id="ha2R5BEODti1fyRFAgqo-14" value="" style="endArrow=none;html=1;rounded=0;" edge="1" parent="1">
          <mxGeometry width="50" height="50" relative="1" as="geometry">
            <mxPoint x="400" y="700" as="sourcePoint" />
            <mxPoint x="460" y="700" as="targetPoint" />
          </mxGeometry>
        </mxCell>
        <mxCell id="ha2R5BEODti1fyRFAgqo-15" value="" style="endArrow=none;html=1;rounded=0;" edge="1" parent="1">
          <mxGeometry width="50" height="50" relative="1" as="geometry">
            <mxPoint x="280" y="570" as="sourcePoint" />
            <mxPoint x="420" y="570" as="targetPoint" />
          </mxGeometry>
        </mxCell>
        <mxCell id="ha2R5BEODti1fyRFAgqo-16" value="" style="endArrow=none;dashed=1;html=1;dashPattern=1 3;strokeWidth=2;rounded=0;" edge="1" parent="1">
          <mxGeometry width="50" height="50" relative="1" as="geometry">
            <mxPoint x="400" y="720" as="sourcePoint" />
            <mxPoint x="400" y="750" as="targetPoint" />
          </mxGeometry>
        </mxCell>
        <mxCell id="ha2R5BEODti1fyRFAgqo-17" value="" style="endArrow=none;dashed=1;html=1;dashPattern=1 3;strokeWidth=2;rounded=0;" edge="1" parent="1">
          <mxGeometry width="50" height="50" relative="1" as="geometry">
            <mxPoint x="400" y="440" as="sourcePoint" />
            <mxPoint x="400" y="470" as="targetPoint" />
          </mxGeometry>
        </mxCell>
        <mxCell id="ha2R5BEODti1fyRFAgqo-18" value="&lt;b&gt;Category1&lt;/b&gt;" style="text;html=1;align=center;verticalAlign=middle;resizable=0;points=[];autosize=1;strokeColor=none;fillColor=none;" vertex="1" parent="1">
          <mxGeometry x="315" y="250" width="80" height="30" as="geometry" />
        </mxCell>
        <mxCell id="ha2R5BEODti1fyRFAgqo-19" value="&lt;b&gt;Category2&lt;/b&gt;" style="text;html=1;align=center;verticalAlign=middle;resizable=0;points=[];autosize=1;strokeColor=none;fillColor=none;" vertex="1" parent="1">
          <mxGeometry x="315" y="540" width="80" height="30" as="geometry" />
        </mxCell>
        <mxCell id="ha2R5BEODti1fyRFAgqo-20" value="&lt;b&gt;WOT PPF_Category1_&lt;i style=&quot;&quot;&gt;timestamp&lt;/i&gt;.xlsx&lt;/b&gt;" style="text;html=1;align=center;verticalAlign=middle;resizable=0;points=[];autosize=1;strokeColor=none;fillColor=none;" vertex="1" parent="1">
          <mxGeometry x="395" y="300" width="230" height="30" as="geometry" />
        </mxCell>
        <mxCell id="ha2R5BEODti1fyRFAgqo-21" value="&lt;b&gt;WOT PPF_Category1_&lt;i style=&quot;&quot;&gt;timestamp&lt;/i&gt;.xlsx&lt;/b&gt;" style="text;html=1;align=center;verticalAlign=middle;resizable=0;points=[];autosize=1;strokeColor=none;fillColor=none;" vertex="1" parent="1">
          <mxGeometry x="395" y="350" width="230" height="30" as="geometry" />
        </mxCell>
        <mxCell id="ha2R5BEODti1fyRFAgqo-22" value="&lt;b&gt;WOT PPF_Category1_&lt;i style=&quot;&quot;&gt;timestamp&lt;/i&gt;.xlsx&lt;/b&gt;" style="text;html=1;align=center;verticalAlign=middle;resizable=0;points=[];autosize=1;strokeColor=none;fillColor=none;" vertex="1" parent="1">
          <mxGeometry x="395" y="400" width="230" height="30" as="geometry" />
        </mxCell>
        <mxCell id="ha2R5BEODti1fyRFAgqo-23" value="&lt;b&gt;WOT PPF_Category2_&lt;i style=&quot;&quot;&gt;timestamp&lt;/i&gt;.xlsx&lt;/b&gt;" style="text;html=1;align=center;verticalAlign=middle;resizable=0;points=[];autosize=1;strokeColor=none;fillColor=none;" vertex="1" parent="1">
          <mxGeometry x="405" y="590" width="230" height="30" as="geometry" />
        </mxCell>
        <mxCell id="ha2R5BEODti1fyRFAgqo-24" value="&lt;b&gt;WOT PPF_Category2_&lt;i style=&quot;&quot;&gt;timestamp&lt;/i&gt;.xlsx&lt;/b&gt;" style="text;html=1;align=center;verticalAlign=middle;resizable=0;points=[];autosize=1;strokeColor=none;fillColor=none;" vertex="1" parent="1">
          <mxGeometry x="405" y="630" width="230" height="30" as="geometry" />
        </mxCell>
        <mxCell id="ha2R5BEODti1fyRFAgqo-25" value="&lt;b&gt;WOT PPF_Category2_&lt;i style=&quot;&quot;&gt;timestamp&lt;/i&gt;.xlsx&lt;/b&gt;" style="text;html=1;align=center;verticalAlign=middle;resizable=0;points=[];autosize=1;strokeColor=none;fillColor=none;" vertex="1" parent="1">
          <mxGeometry x="414" y="670" width="230" height="30" as="geometry" />
        </mxCell>
        <mxCell id="ha2R5BEODti1fyRFAgqo-29" value="&lt;b&gt;Reader Classes&lt;/b&gt;" style="rounded=0;whiteSpace=wrap;html=1;fontFamily=Verdana;" vertex="1" parent="1">
          <mxGeometry x="697" y="222.5" width="130" height="185" as="geometry" />
        </mxCell>
        <mxCell id="ha2R5BEODti1fyRFAgqo-36" value="&lt;b&gt;Transformer Classes&lt;/b&gt;" style="rounded=0;whiteSpace=wrap;html=1;fontFamily=Verdana;" vertex="1" parent="1">
          <mxGeometry x="697" y="475" width="130" height="185" as="geometry" />
        </mxCell>
        <mxCell id="ha2R5BEODti1fyRFAgqo-41" value="" style="group" vertex="1" connectable="0" parent="1">
          <mxGeometry x="870" y="350" width="160" height="110" as="geometry" />
        </mxCell>
        <mxCell id="ha2R5BEODti1fyRFAgqo-37" value="" style="rounded=0;whiteSpace=wrap;html=1;fontFamily=Verdana;" vertex="1" parent="ha2R5BEODti1fyRFAgqo-41">
          <mxGeometry width="160" height="110" as="geometry" />
        </mxCell>
        <mxCell id="ha2R5BEODti1fyRFAgqo-38" value="&lt;b&gt;SQL OPS Class&lt;/b&gt;" style="text;html=1;align=center;verticalAlign=middle;resizable=0;points=[];autosize=1;strokeColor=none;fillColor=none;" vertex="1" parent="ha2R5BEODti1fyRFAgqo-41">
          <mxGeometry x="24.996666666666663" y="40" width="110" height="30" as="geometry" />
        </mxCell>
        <mxCell id="ha2R5BEODti1fyRFAgqo-51" value="" style="endArrow=classic;html=1;rounded=0;fontFamily=Verdana;entryX=1;entryY=0.636;entryDx=0;entryDy=0;entryPerimeter=0;" edge="1" parent="ha2R5BEODti1fyRFAgqo-41" target="ha2R5BEODti1fyRFAgqo-37">
          <mxGeometry width="50" height="50" relative="1" as="geometry">
            <mxPoint x="260" y="70" as="sourcePoint" />
            <mxPoint x="200" y="100" as="targetPoint" />
          </mxGeometry>
        </mxCell>
        <mxCell id="ha2R5BEODti1fyRFAgqo-43" value="" style="endArrow=classic;html=1;rounded=0;fontFamily=Verdana;entryX=0;entryY=0.5;entryDx=0;entryDy=0;" edge="1" parent="1" target="ha2R5BEODti1fyRFAgqo-32">
          <mxGeometry width="50" height="50" relative="1" as="geometry">
            <mxPoint x="350" y="170" as="sourcePoint" />
            <mxPoint x="400" y="120" as="targetPoint" />
            <Array as="points">
              <mxPoint x="350" y="110" />
            </Array>
          </mxGeometry>
        </mxCell>
        <mxCell id="ha2R5BEODti1fyRFAgqo-44" value="" style="endArrow=classic;html=1;rounded=0;fontFamily=Verdana;entryX=0.632;entryY=-0.033;entryDx=0;entryDy=0;entryPerimeter=0;exitX=0.315;exitY=0;exitDx=0;exitDy=0;exitPerimeter=0;" edge="1" parent="1" source="ha2R5BEODti1fyRFAgqo-37" target="ha2R5BEODti1fyRFAgqo-32">
          <mxGeometry width="50" height="50" relative="1" as="geometry">
            <mxPoint x="1010" y="350" as="sourcePoint" />
            <mxPoint x="890" y="450" as="targetPoint" />
            <Array as="points">
              <mxPoint x="920" y="40" />
              <mxPoint x="756" y="40" />
            </Array>
          </mxGeometry>
        </mxCell>
        <mxCell id="ha2R5BEODti1fyRFAgqo-45" value="" style="endArrow=classic;html=1;rounded=0;fontFamily=Verdana;exitX=1;exitY=0.5;exitDx=0;exitDy=0;entryX=0.5;entryY=0;entryDx=0;entryDy=0;" edge="1" parent="1" source="ha2R5BEODti1fyRFAgqo-32" target="ha2R5BEODti1fyRFAgqo-29">
          <mxGeometry width="50" height="50" relative="1" as="geometry">
            <mxPoint x="830" y="170" as="sourcePoint" />
            <mxPoint x="880" y="120" as="targetPoint" />
            <Array as="points">
              <mxPoint x="762" y="110" />
            </Array>
          </mxGeometry>
        </mxCell>
        <mxCell id="ha2R5BEODti1fyRFAgqo-46" value="" style="endArrow=classic;html=1;rounded=0;fontFamily=Verdana;exitX=0.5;exitY=1;exitDx=0;exitDy=0;entryX=0.5;entryY=0;entryDx=0;entryDy=0;" edge="1" parent="1" source="ha2R5BEODti1fyRFAgqo-29" target="ha2R5BEODti1fyRFAgqo-36">
          <mxGeometry width="50" height="50" relative="1" as="geometry">
            <mxPoint x="990" y="570" as="sourcePoint" />
            <mxPoint x="1040" y="520" as="targetPoint" />
          </mxGeometry>
        </mxCell>
        <mxCell id="ha2R5BEODti1fyRFAgqo-47" value="" style="endArrow=classic;html=1;rounded=0;fontFamily=Verdana;exitX=0.5;exitY=1;exitDx=0;exitDy=0;entryX=0.431;entryY=1.029;entryDx=0;entryDy=0;entryPerimeter=0;" edge="1" parent="1" source="ha2R5BEODti1fyRFAgqo-36" target="ha2R5BEODti1fyRFAgqo-37">
          <mxGeometry width="50" height="50" relative="1" as="geometry">
            <mxPoint x="1010" y="750" as="sourcePoint" />
            <mxPoint x="1060" y="700" as="targetPoint" />
            <Array as="points">
              <mxPoint x="885" y="740" />
              <mxPoint x="940" y="740" />
            </Array>
          </mxGeometry>
        </mxCell>
        <mxCell id="ha2R5BEODti1fyRFAgqo-48" value="" style="endArrow=classic;html=1;rounded=0;fontFamily=Verdana;entryX=0.75;entryY=0;entryDx=0;entryDy=0;exitX=-0.012;exitY=0.623;exitDx=0;exitDy=0;exitPerimeter=0;" edge="1" parent="1" source="ha2R5BEODti1fyRFAgqo-37" target="ha2R5BEODti1fyRFAgqo-36">
          <mxGeometry width="50" height="50" relative="1" as="geometry">
            <mxPoint x="1100" y="450" as="sourcePoint" />
            <mxPoint x="880" y="455" as="targetPoint" />
            <Array as="points">
              <mxPoint x="795" y="420" />
            </Array>
          </mxGeometry>
        </mxCell>
        <mxCell id="ha2R5BEODti1fyRFAgqo-49" value="" style="group" vertex="1" connectable="0" parent="1">
          <mxGeometry x="570" y="80" width="120" height="60" as="geometry" />
        </mxCell>
        <mxCell id="ha2R5BEODti1fyRFAgqo-32" value="" style="rounded=0;whiteSpace=wrap;html=1;fontFamily=Verdana;" vertex="1" parent="ha2R5BEODti1fyRFAgqo-49">
          <mxGeometry width="120" height="60" as="geometry" />
        </mxCell>
        <mxCell id="ha2R5BEODti1fyRFAgqo-30" value="&lt;b&gt;File Ops Class&lt;/b&gt;" style="text;html=1;align=center;verticalAlign=middle;resizable=0;points=[];autosize=1;strokeColor=none;fillColor=none;" vertex="1" parent="ha2R5BEODti1fyRFAgqo-49">
          <mxGeometry x="5" y="15" width="110" height="30" as="geometry" />
        </mxCell>
        <mxCell id="ha2R5BEODti1fyRFAgqo-50" value="" style="endArrow=classic;html=1;rounded=0;fontFamily=Verdana;" edge="1" parent="1">
          <mxGeometry width="50" height="50" relative="1" as="geometry">
            <mxPoint x="1030" y="400" as="sourcePoint" />
            <mxPoint x="1130" y="400" as="targetPoint" />
          </mxGeometry>
        </mxCell>
        <mxCell id="ha2R5BEODti1fyRFAgqo-52" value="&lt;b&gt;SQL DB&lt;/b&gt;" style="shape=cylinder3;whiteSpace=wrap;html=1;boundedLbl=1;backgroundOutline=1;size=15;fontFamily=Verdana;" vertex="1" parent="1">
          <mxGeometry x="1130" y="330" width="80" height="160" as="geometry" />
        </mxCell>
        <mxCell id="ha2R5BEODti1fyRFAgqo-53" value="" style="shape=note;whiteSpace=wrap;html=1;backgroundOutline=1;darkOpacity=0.05;fontFamily=Verdana;" vertex="1" parent="1">
          <mxGeometry x="1290" y="342.5" width="110" height="135" as="geometry" />
        </mxCell>
        <mxCell id="ha2R5BEODti1fyRFAgqo-54" value="&lt;b&gt;PowerBI Dashboard&lt;/b&gt;" style="text;html=1;align=center;verticalAlign=middle;resizable=0;points=[];autosize=1;strokeColor=none;fillColor=none;fontFamily=Verdana;" vertex="1" parent="1">
          <mxGeometry x="1265" y="300" width="150" height="30" as="geometry" />
        </mxCell>
        <mxCell id="ha2R5BEODti1fyRFAgqo-55" value="" style="endArrow=classic;html=1;rounded=0;fontFamily=Verdana;exitX=1;exitY=0.5;exitDx=0;exitDy=0;exitPerimeter=0;entryX=0;entryY=0.5;entryDx=0;entryDy=0;entryPerimeter=0;" edge="1" parent="1" source="ha2R5BEODti1fyRFAgqo-52" target="ha2R5BEODti1fyRFAgqo-53">
          <mxGeometry width="50" height="50" relative="1" as="geometry">
            <mxPoint x="1310" y="580" as="sourcePoint" />
            <mxPoint x="1360" y="530" as="targetPoint" />
          </mxGeometry>
        </mxCell>
      </root>
    </mxGraphModel>
  </diagram>
</mxfile>
